<mxfile host="app.diagrams.net" modified="2022-11-22T12:00:17.854Z" agent="5.0 (Windows NT 10.0; Win64; x64) AppleWebKit/537.36 (KHTML, like Gecko) Chrome/107.0.0.0 Safari/537.36" etag="jyqg4LvnKPJDFbfxE2PP" version="20.5.3" type="github">
  <diagram id="C5RBs43oDa-KdzZeNtuy" name="Page-1">
    <mxGraphModel dx="1185" dy="662" grid="1" gridSize="10" guides="1" tooltips="1" connect="1" arrows="1" fold="1" page="1" pageScale="1" pageWidth="827" pageHeight="1169" math="0" shadow="0">
      <root>
        <mxCell id="WIyWlLk6GJQsqaUBKTNV-0" />
        <mxCell id="WIyWlLk6GJQsqaUBKTNV-1" parent="WIyWlLk6GJQsqaUBKTNV-0" />
        <mxCell id="1GGLRnujRTOvus4_LWlW-0" value="Account" style="swimlane;fontStyle=2;align=center;verticalAlign=top;childLayout=stackLayout;horizontal=1;startSize=26;horizontalStack=0;resizeParent=1;resizeLast=0;collapsible=1;marginBottom=0;rounded=0;shadow=0;strokeWidth=1;" vertex="1" parent="WIyWlLk6GJQsqaUBKTNV-1">
          <mxGeometry x="20" y="100" width="160" height="140" as="geometry">
            <mxRectangle x="230" y="140" width="160" height="26" as="alternateBounds" />
          </mxGeometry>
        </mxCell>
        <mxCell id="1GGLRnujRTOvus4_LWlW-1" value="Vorname String" style="text;align=left;verticalAlign=top;spacingLeft=4;spacingRight=4;overflow=hidden;rotatable=0;points=[[0,0.5],[1,0.5]];portConstraint=eastwest;" vertex="1" parent="1GGLRnujRTOvus4_LWlW-0">
          <mxGeometry y="26" width="160" height="26" as="geometry" />
        </mxCell>
        <mxCell id="1GGLRnujRTOvus4_LWlW-2" value="Nachname String&#xa;" style="text;align=left;verticalAlign=top;spacingLeft=4;spacingRight=4;overflow=hidden;rotatable=0;points=[[0,0.5],[1,0.5]];portConstraint=eastwest;rounded=0;shadow=0;html=0;" vertex="1" parent="1GGLRnujRTOvus4_LWlW-0">
          <mxGeometry y="52" width="160" height="26" as="geometry" />
        </mxCell>
        <mxCell id="1GGLRnujRTOvus4_LWlW-3" value="Benutzername String" style="text;align=left;verticalAlign=top;spacingLeft=4;spacingRight=4;overflow=hidden;rotatable=0;points=[[0,0.5],[1,0.5]];portConstraint=eastwest;rounded=0;shadow=0;html=0;" vertex="1" parent="1GGLRnujRTOvus4_LWlW-0">
          <mxGeometry y="78" width="160" height="26" as="geometry" />
        </mxCell>
        <mxCell id="1GGLRnujRTOvus4_LWlW-12" value="Passwort  Int" style="text;align=left;verticalAlign=top;spacingLeft=4;spacingRight=4;overflow=hidden;rotatable=0;points=[[0,0.5],[1,0.5]];portConstraint=eastwest;rounded=0;shadow=0;html=0;" vertex="1" parent="1GGLRnujRTOvus4_LWlW-0">
          <mxGeometry y="104" width="160" height="26" as="geometry" />
        </mxCell>
        <mxCell id="1GGLRnujRTOvus4_LWlW-19" style="edgeStyle=orthogonalEdgeStyle;rounded=0;orthogonalLoop=1;jettySize=auto;html=1;entryX=1;entryY=0.5;entryDx=0;entryDy=0;entryPerimeter=0;" edge="1" parent="WIyWlLk6GJQsqaUBKTNV-1" source="1GGLRnujRTOvus4_LWlW-15" target="1GGLRnujRTOvus4_LWlW-17">
          <mxGeometry relative="1" as="geometry" />
        </mxCell>
        <mxCell id="1GGLRnujRTOvus4_LWlW-26" style="edgeStyle=orthogonalEdgeStyle;rounded=0;orthogonalLoop=1;jettySize=auto;html=1;exitX=1;exitY=0.5;exitDx=0;exitDy=0;endArrow=none;endFill=0;entryX=1;entryY=0.5;entryDx=0;entryDy=0;" edge="1" parent="WIyWlLk6GJQsqaUBKTNV-1" source="1GGLRnujRTOvus4_LWlW-15" target="1GGLRnujRTOvus4_LWlW-22">
          <mxGeometry relative="1" as="geometry">
            <mxPoint x="730" y="510" as="targetPoint" />
          </mxGeometry>
        </mxCell>
        <mxCell id="1GGLRnujRTOvus4_LWlW-15" value="&lt;b&gt;Component:&lt;br&gt;Registrierung&lt;br&gt;&lt;/b&gt;" style="html=1;dropTarget=0;" vertex="1" parent="WIyWlLk6GJQsqaUBKTNV-1">
          <mxGeometry x="510" y="50" width="180" height="90" as="geometry" />
        </mxCell>
        <mxCell id="1GGLRnujRTOvus4_LWlW-17" value="Datenbank" style="shape=cylinder3;whiteSpace=wrap;html=1;boundedLbl=1;backgroundOutline=1;size=15;" vertex="1" parent="WIyWlLk6GJQsqaUBKTNV-1">
          <mxGeometry x="230" y="120" width="60" height="80" as="geometry" />
        </mxCell>
        <mxCell id="1GGLRnujRTOvus4_LWlW-18" style="edgeStyle=orthogonalEdgeStyle;rounded=0;orthogonalLoop=1;jettySize=auto;html=1;exitX=1;exitY=0.5;exitDx=0;exitDy=0;entryX=0;entryY=0.5;entryDx=0;entryDy=0;entryPerimeter=0;" edge="1" parent="WIyWlLk6GJQsqaUBKTNV-1" source="1GGLRnujRTOvus4_LWlW-2" target="1GGLRnujRTOvus4_LWlW-17">
          <mxGeometry relative="1" as="geometry" />
        </mxCell>
        <mxCell id="1GGLRnujRTOvus4_LWlW-23" style="edgeStyle=orthogonalEdgeStyle;rounded=0;orthogonalLoop=1;jettySize=auto;html=1;entryX=1;entryY=0.5;entryDx=0;entryDy=0;entryPerimeter=0;" edge="1" parent="WIyWlLk6GJQsqaUBKTNV-1" source="1GGLRnujRTOvus4_LWlW-20" target="1GGLRnujRTOvus4_LWlW-17">
          <mxGeometry relative="1" as="geometry" />
        </mxCell>
        <mxCell id="1GGLRnujRTOvus4_LWlW-27" style="edgeStyle=orthogonalEdgeStyle;rounded=0;orthogonalLoop=1;jettySize=auto;html=1;exitX=1;exitY=0.5;exitDx=0;exitDy=0;endArrow=none;endFill=0;" edge="1" parent="WIyWlLk6GJQsqaUBKTNV-1" source="1GGLRnujRTOvus4_LWlW-20">
          <mxGeometry relative="1" as="geometry">
            <mxPoint x="710" y="234.66666666666674" as="targetPoint" />
          </mxGeometry>
        </mxCell>
        <mxCell id="1GGLRnujRTOvus4_LWlW-20" value="&lt;b&gt;Component:&lt;br&gt;An- und Abmeldung&amp;nbsp;&lt;br&gt;&lt;/b&gt;" style="html=1;dropTarget=0;" vertex="1" parent="WIyWlLk6GJQsqaUBKTNV-1">
          <mxGeometry x="510" y="190" width="180" height="90" as="geometry" />
        </mxCell>
        <mxCell id="1GGLRnujRTOvus4_LWlW-24" style="edgeStyle=orthogonalEdgeStyle;rounded=0;orthogonalLoop=1;jettySize=auto;html=1;exitX=0;exitY=0.5;exitDx=0;exitDy=0;endArrow=none;endFill=0;" edge="1" parent="WIyWlLk6GJQsqaUBKTNV-1" source="1GGLRnujRTOvus4_LWlW-21">
          <mxGeometry relative="1" as="geometry">
            <mxPoint x="400" y="220" as="targetPoint" />
          </mxGeometry>
        </mxCell>
        <mxCell id="1GGLRnujRTOvus4_LWlW-28" style="edgeStyle=orthogonalEdgeStyle;rounded=0;orthogonalLoop=1;jettySize=auto;html=1;exitX=1;exitY=0.5;exitDx=0;exitDy=0;endArrow=none;endFill=0;" edge="1" parent="WIyWlLk6GJQsqaUBKTNV-1" source="1GGLRnujRTOvus4_LWlW-21">
          <mxGeometry relative="1" as="geometry">
            <mxPoint x="710" y="374.66666666666674" as="targetPoint" />
          </mxGeometry>
        </mxCell>
        <mxCell id="1GGLRnujRTOvus4_LWlW-21" value="&lt;b&gt;Component:&lt;br&gt;Kennwort Anderung&amp;nbsp;&lt;br&gt;&lt;/b&gt;" style="html=1;dropTarget=0;" vertex="1" parent="WIyWlLk6GJQsqaUBKTNV-1">
          <mxGeometry x="510" y="330" width="180" height="90" as="geometry" />
        </mxCell>
        <mxCell id="1GGLRnujRTOvus4_LWlW-25" style="edgeStyle=orthogonalEdgeStyle;rounded=0;orthogonalLoop=1;jettySize=auto;html=1;endArrow=none;endFill=0;" edge="1" parent="WIyWlLk6GJQsqaUBKTNV-1" source="1GGLRnujRTOvus4_LWlW-22">
          <mxGeometry relative="1" as="geometry">
            <mxPoint x="400" y="370" as="targetPoint" />
          </mxGeometry>
        </mxCell>
        <mxCell id="1GGLRnujRTOvus4_LWlW-32" style="edgeStyle=orthogonalEdgeStyle;rounded=0;orthogonalLoop=1;jettySize=auto;html=1;exitX=1;exitY=0.5;exitDx=0;exitDy=0;entryX=0.474;entryY=-0.028;entryDx=0;entryDy=0;entryPerimeter=0;endArrow=classic;endFill=1;" edge="1" parent="WIyWlLk6GJQsqaUBKTNV-1" source="1GGLRnujRTOvus4_LWlW-22" target="1GGLRnujRTOvus4_LWlW-31">
          <mxGeometry relative="1" as="geometry" />
        </mxCell>
        <mxCell id="1GGLRnujRTOvus4_LWlW-22" value="&lt;b&gt;Component:&lt;br&gt;Löschung&lt;br&gt;&lt;/b&gt;" style="html=1;dropTarget=0;" vertex="1" parent="WIyWlLk6GJQsqaUBKTNV-1">
          <mxGeometry x="510" y="460" width="180" height="90" as="geometry" />
        </mxCell>
        <mxCell id="1GGLRnujRTOvus4_LWlW-31" value="User Interface&lt;br&gt;CLI?" style="html=1;" vertex="1" parent="WIyWlLk6GJQsqaUBKTNV-1">
          <mxGeometry x="490" y="620" width="190" height="130" as="geometry" />
        </mxCell>
      </root>
    </mxGraphModel>
  </diagram>
</mxfile>
